<svg xmlns="http://www.w3.org/2000/svg" viewBox="0 0 48 48" id="FrontBumperBullBarCar">
  <g fill="#ffffff" class="color000000 svgShape">
    <path d="M34 39H13.71l-13-4A1 1 0 0 1 0 34v-8a1 1 0 0 1 1-1h46a1 1 0 0 1 1 1v8a1 1 0 0 1-.71 1C33.4 39.23 34.22 39 34 39zm-19.85-2h19.7L46 33.26V27H2v6.26zM29 13H19a1 1 0 0 1 0-2h10a1 1 0 0 1 0 2z" fill="#ffffff" class="color000000 svgShape"></path>
    <path d="M42 27c-38.35 0-36.27.14-36.71-.29C.49 21.9 1 23.12 1 16a5 5 0 0 1 5-5h9a1 1 0 0 1 0 2H6a3 3 0 0 0-3 3c0 6.38-.63 5 3.41 9h35.18c4-4 3.41-2.6 3.41-9a3 3 0 0 0-3-3h-9a1 1 0 0 1 0-2h9a5 5 0 0 1 5 5c0 4.25.37 6-1.47 7.88C42.46 27 42.55 27 42 27Z" fill="#ffffff" class="color000000 svgShape"></path>
    <path d="M29 17H19a1 1 0 0 1 0-2h10a1 1 0 0 1 0 2zm8 10a1 1 0 0 1-.71-1.71C41 20.64 41 20.77 41 20.17V17h-8a1 1 0 0 1 0-2h9a1 1 0 0 1 1 1c0 4.35.23 5.18-.88 6.3C37.46 27 37.58 27 37 27zm-26 0c-.57 0-.36.05-5.12-4.7C4.77 21.18 5 20.43 5 16a1 1 0 0 1 1-1h9a1 1 0 0 1 0 2H7v3.17c0 .57-.06.35 4.71 5.12A1 1 0 0 1 11 27z" fill="#ffffff" class="color000000 svgShape"></path>
    <path d="M19 27h-4a1 1 0 0 1-1-1V12a3 3 0 0 1 6 0v14a1 1 0 0 1-1 1zm-3-2h2V12a1 1 0 0 0-2 0zm17 2h-4a1 1 0 0 1-1-1V12a3 3 0 0 1 6 0v14a1 1 0 0 1-1 1zm-3-2h2V12a1 1 0 0 0-2 0z" fill="#ffffff" class="color000000 svgShape"></path>
    <path d="M19 39h-4a1 1 0 0 1-1-1V26a1 1 0 0 1 1-1h4a1 1 0 0 1 1 1v12a1 1 0 0 1-1 1zm-3-2h2V27h-2zm17 2h-4a1 1 0 0 1-1-1V26a1 1 0 0 1 1-1h4a1 1 0 0 1 1 1v12a1 1 0 0 1-1 1zm-3-2h2V27h-2zm-20-6H5a1 1 0 0 1 0-2h5a1 1 0 0 1 0 2zm33 0h-5a1 1 0 0 1 0-2h5a1 1 0 0 1 0 2z" fill="#ffffff" class="color000000 svgShape"></path>
    <path d="M29 35H19a1 1 0 0 1-1-1v-4a1 1 0 0 1 1-1h10a1 1 0 0 1 1 1v4a1 1 0 0 1-1 1zm-9-2h8v-2h-8zm-5 2h-2a1 1 0 0 1 0-2h2a1 1 0 0 1 0 2zm20 0h-2a1 1 0 0 1 0-2h2a1 1 0 0 1 0 2z" fill="#ffffff" class="color000000 svgShape"></path>
  </g>
</svg>
