<!DOCTYPE svg PUBLIC "-//W3C//DTD SVG 1.1//EN" "http://www.w3.org/Graphics/SVG/1.1/DTD/svg11.dtd">
<!-- Uploaded to: SVG Repo, www.svgrepo.com, Transformed by: SVG Repo Mixer Tools -->
<svg fill="#ffffff" height="800px" width="800px" version="1.1" id="Layer_1" xmlns="http://www.w3.org/2000/svg" xmlns:xlink="http://www.w3.org/1999/xlink" viewBox="0 0 512 512" xml:space="preserve">
<g id="SVGRepo_bgCarrier" stroke-width="0"/>
<g id="SVGRepo_tracerCarrier" stroke-linecap="round" stroke-linejoin="round"/>
<g id="SVGRepo_iconCarrier"> <g> <g> <path d="M494.638,17.347c-23.122-23.121-60.752-23.114-83.884,0.017L333.897,94.22c-0.002,0.003-0.005,0.005-0.007,0.007 c-0.003,0.003-0.005,0.005-0.007,0.007L61.317,366.803c-1.636,1.634-2.645,3.791-2.855,6.093l-6.988,76.879 c-0.265,2.922,0.779,5.811,2.855,7.884c1.86,1.863,4.38,2.896,6.988,2.896c0.297,0,0.596-0.015,0.895-0.041l76.879-6.988 c2.302-0.21,4.459-1.219,6.093-2.855l20.958-20.958c0.003-0.002,0.007-0.005,0.012-0.01c0.005-0.005,0.007-0.01,0.01-0.012 l328.458-328.457C505.822,90.033,511.993,75.14,512,59.295C512.005,43.446,505.839,28.549,494.638,17.347z M133.736,434.161 l-61.502,5.591l5.591-61.502l11.45-11.45l55.911,55.911L133.736,434.161z M159.163,408.735l-55.911-55.911l237.627-237.628 l55.914,55.911L159.163,408.735z M480.644,87.255l-69.876,69.875l-55.911-55.911l69.873-69.875 c15.429-15.422,40.516-15.432,55.931-0.017c7.464,7.465,11.573,17.395,11.571,27.962 C492.227,69.855,488.113,79.787,480.644,87.255z"/> </g> </g> <g> <g> <path d="M47.338,464.649c-3.861-3.861-10.12-3.861-13.977,0L2.896,495.116c-3.861,3.858-3.861,10.118,0,13.977 c1.931,1.93,4.459,2.896,6.989,2.896c2.529,0,5.06-0.965,6.988-2.896l30.465-30.468C51.199,474.767,51.199,468.507,47.338,464.649 z"/> </g> </g> <g> <g> <path d="M466.682,45.304c-3.856-3.858-10.12-3.858-13.976,0l-62.902,62.902c-3.861,3.861-3.861,10.118,0,13.979 c1.928,1.929,4.459,2.894,6.989,2.894c2.529,0,5.06-0.965,6.988-2.894l62.902-62.902 C470.543,55.422,470.543,49.165,466.682,45.304z"/> </g> </g> </g>
</svg>